# xmcd CD database file
#
# Track frame offsets:
#	150
#	13963
#	31580
#	51072
#	69298
#	84323
#	98265
#	112280
#	124912
#	141783
#	156780
#	173050
#	191055
#
# Disc length: 2756 seconds
#
# Revision: 2
# Processed by: cddbd v1.5.1PL0 Copyright (c) Steve Scherf et al.
# Submitted via: CDex 1.40Release
#
DISCID=a30ac20d
DTITLE=Various Artist - The Studio 95 Sessions Vol. 1
DYEAR=2005
DGENRE=Country
TTITLE0=Forgive Me (For Giving A Damn) - Doc Walker
TTITLE1=Unbeatable - Deric Ruttan
TTITLE2=Home - Paul Brandt
TTITLE3=Jimmy Rankin - Followed Her Around
TTITLE4=Guardian Angel - Jason McCoy
TTITLE5=North Dakota Boy - Doc Walker
TTITLE6=Good Day to Ride - George Canyon
TTITLE7=Living Out Loud - Aaron Lines
TTITLE8=Still - Jason McCoy
TTITLE9=Cry a Little - Gil Grand
TTITLE10=The Show is Free - Doc Walker
TTITLE11=The First Day (You Wake up Alone) - Beverly Mahood
TTITLE12=You Still Own Me - Johnny Reid
EXTD=YEAR: 2005 ID3G: 2
EXTT0=
EXTT1=
EXTT2=
EXTT3=
EXTT4=
EXTT5=
EXTT6=
EXTT7=
EXTT8=
EXTT9=
EXTT10=
EXTT11=
EXTT12=
PLAYORDER=
